<mxfile host="app.diagrams.net" modified="2023-08-21T08:20:45.212Z" agent="5.0 (Macintosh; Intel Mac OS X 10_15_7) AppleWebKit/537.36 (KHTML, like Gecko) Chrome/114.0.0.0 Safari/537.36" etag="2GT5RLtMDoEVom7zuICY" version="20.8.20" type="github">
  <diagram id="kgpKYQtTHZ0yAKxKKP6v" name="Page-1">
    <mxGraphModel dx="1026" dy="522" grid="1" gridSize="10" guides="1" tooltips="1" connect="1" arrows="1" fold="1" page="1" pageScale="1" pageWidth="850" pageHeight="1100" math="0" shadow="0">
      <root>
        <mxCell id="0" />
        <mxCell id="1" parent="0" />
        <mxCell id="f9j3d46IJy92FI_s9n57-42" value="&lt;font style=&quot;font-size: 16px;&quot;&gt;主进程&lt;/font&gt;" style="swimlane;whiteSpace=wrap;html=1;fillColor=#dae8fc;strokeColor=#6c8ebf;" vertex="1" parent="1">
          <mxGeometry x="20" y="100" width="330" height="480" as="geometry" />
        </mxCell>
        <mxCell id="f9j3d46IJy92FI_s9n57-45" value="&lt;font style=&quot;font-size: 15px;&quot;&gt;Electron&lt;/font&gt;" style="swimlane;whiteSpace=wrap;html=1;startSize=23;fillColor=#dae8fc;strokeColor=#6c8ebf;" vertex="1" parent="f9j3d46IJy92FI_s9n57-42">
          <mxGeometry x="20" y="189" width="290" height="273" as="geometry" />
        </mxCell>
        <mxCell id="f9j3d46IJy92FI_s9n57-50" value="&lt;p style=&quot;margin: 0px; font-variant-numeric: normal; font-variant-east-asian: normal; font-variant-alternates: normal; font-kerning: auto; font-optical-sizing: auto; font-feature-settings: normal; font-variation-settings: normal; font-stretch: normal; line-height: normal; -webkit-text-stroke-color: rgb(0, 0, 0); text-align: start;&quot; class=&quot;p1&quot;&gt;&lt;span style=&quot;font-size: 15px;&quot;&gt;变量和方法&lt;/span&gt;&lt;/p&gt;" style="swimlane;whiteSpace=wrap;html=1;startSize=23;fillColor=#d0cee2;strokeColor=#56517e;fontStyle=0" vertex="1" parent="f9j3d46IJy92FI_s9n57-45">
          <mxGeometry x="140" y="121" width="130" height="140" as="geometry" />
        </mxCell>
        <mxCell id="f9j3d46IJy92FI_s9n57-51" value="&lt;p style=&quot;margin: 0px; font-variant-numeric: normal; font-variant-east-asian: normal; font-variant-alternates: normal; font-kerning: auto; font-optical-sizing: auto; font-feature-settings: normal; font-variation-settings: normal; font-stretch: normal; line-height: normal; color: rgb(49, 49, 49); -webkit-text-stroke-color: rgb(0, 0, 0);&quot; class=&quot;p1&quot;&gt;&lt;font style=&quot;font-size: 11px;&quot;&gt;方法&lt;/font&gt;&lt;/p&gt;" style="whiteSpace=wrap;html=1;fillColor=#d0cee2;strokeColor=#56517e;" vertex="1" parent="f9j3d46IJy92FI_s9n57-50">
          <mxGeometry x="10" y="87" width="110" height="40" as="geometry" />
        </mxCell>
        <mxCell id="f9j3d46IJy92FI_s9n57-52" value="&lt;p style=&quot;margin: 0px; font-variant-numeric: normal; font-variant-east-asian: normal; font-variant-alternates: normal; font-kerning: auto; font-optical-sizing: auto; font-feature-settings: normal; font-variation-settings: normal; font-stretch: normal; font-size: 11px; line-height: normal; color: rgb(49, 49, 49); -webkit-text-stroke-color: rgb(0, 0, 0);&quot; class=&quot;p1&quot;&gt;环境变量&lt;/p&gt;" style="whiteSpace=wrap;html=1;fillColor=#d0cee2;strokeColor=#56517e;" vertex="1" parent="f9j3d46IJy92FI_s9n57-50">
          <mxGeometry x="10" y="34" width="110" height="40" as="geometry" />
        </mxCell>
        <mxCell id="f9j3d46IJy92FI_s9n57-59" value="ipcMain" style="rounded=0;whiteSpace=wrap;html=1;fontSize=16;fillColor=#b1ddf0;strokeColor=#10739e;" vertex="1" parent="f9j3d46IJy92FI_s9n57-45">
          <mxGeometry x="145" y="50" width="120" height="40" as="geometry" />
        </mxCell>
        <mxCell id="f9j3d46IJy92FI_s9n57-43" value="&lt;font style=&quot;font-size: 16px;&quot;&gt;渲染进程&lt;/font&gt;" style="swimlane;whiteSpace=wrap;html=1;fillColor=#d5e8d4;strokeColor=#82b366;" vertex="1" parent="1">
          <mxGeometry x="560" y="100" width="400" height="460" as="geometry" />
        </mxCell>
        <mxCell id="f9j3d46IJy92FI_s9n57-44" value="&lt;font style=&quot;font-size: 16px;&quot;&gt;预加载脚本&lt;/font&gt;" style="swimlane;whiteSpace=wrap;html=1;fillColor=#ffe6cc;strokeColor=#d79b00;" vertex="1" parent="1">
          <mxGeometry x="380" y="100" width="150" height="470" as="geometry" />
        </mxCell>
        <mxCell id="f9j3d46IJy92FI_s9n57-46" value="&lt;p style=&quot;margin: 0px; font-variant-numeric: normal; font-variant-east-asian: normal; font-variant-alternates: normal; font-kerning: auto; font-optical-sizing: auto; font-feature-settings: normal; font-variation-settings: normal; font-stretch: normal; line-height: normal; -webkit-text-stroke-color: rgb(0, 0, 0); text-align: start;&quot; class=&quot;p1&quot;&gt;&lt;font style=&quot;font-size: 15px;&quot;&gt;contextBridge&lt;/font&gt;&lt;/p&gt;" style="swimlane;whiteSpace=wrap;html=1;startSize=23;fillColor=#fff2cc;strokeColor=#d6b656;" vertex="1" parent="f9j3d46IJy92FI_s9n57-44">
          <mxGeometry x="10" y="190" width="130" height="260" as="geometry" />
        </mxCell>
        <mxCell id="f9j3d46IJy92FI_s9n57-48" value="&lt;p style=&quot;margin: 0px; font-variant-numeric: normal; font-variant-east-asian: normal; font-variant-alternates: normal; font-kerning: auto; font-optical-sizing: auto; font-feature-settings: normal; font-variation-settings: normal; font-stretch: normal; line-height: normal; color: rgb(49, 49, 49); -webkit-text-stroke-color: rgb(0, 0, 0);&quot; class=&quot;p1&quot;&gt;&lt;font style=&quot;font-size: 11px;&quot;&gt;exposeInMainWorld&lt;/font&gt;&lt;/p&gt;" style="whiteSpace=wrap;html=1;fillColor=#fff2cc;strokeColor=#d6b656;" vertex="1" parent="f9j3d46IJy92FI_s9n57-46">
          <mxGeometry x="10" y="170" width="110" height="40" as="geometry" />
        </mxCell>
        <mxCell id="f9j3d46IJy92FI_s9n57-47" value="&lt;p style=&quot;margin: 0px; font-variant-numeric: normal; font-variant-east-asian: normal; font-variant-alternates: normal; font-kerning: auto; font-optical-sizing: auto; font-feature-settings: normal; font-variation-settings: normal; font-stretch: normal; font-size: 11px; line-height: normal; color: rgb(49, 49, 49); -webkit-text-stroke-color: rgb(0, 0, 0);&quot; class=&quot;p1&quot;&gt;ipcRender&lt;/p&gt;" style="whiteSpace=wrap;html=1;fillColor=#fff2cc;strokeColor=#d6b656;" vertex="1" parent="f9j3d46IJy92FI_s9n57-46">
          <mxGeometry x="10" y="49" width="110" height="40" as="geometry" />
        </mxCell>
        <mxCell id="f9j3d46IJy92FI_s9n57-57" value="注册" style="endArrow=classic;html=1;rounded=0;fontSize=14;entryX=0;entryY=0.5;entryDx=0;entryDy=0;exitX=1;exitY=0.5;exitDx=0;exitDy=0;strokeWidth=2;" edge="1" parent="1" source="f9j3d46IJy92FI_s9n57-50" target="f9j3d46IJy92FI_s9n57-48">
          <mxGeometry width="50" height="50" relative="1" as="geometry">
            <mxPoint x="320" y="515" as="sourcePoint" />
            <mxPoint x="390" y="310" as="targetPoint" />
          </mxGeometry>
        </mxCell>
        <mxCell id="f9j3d46IJy92FI_s9n57-60" value="调用" style="edgeStyle=orthogonalEdgeStyle;rounded=0;orthogonalLoop=1;jettySize=auto;html=1;exitX=0;exitY=0.5;exitDx=0;exitDy=0;entryX=1;entryY=0.5;entryDx=0;entryDy=0;fontSize=14;strokeWidth=2;" edge="1" parent="1" source="f9j3d46IJy92FI_s9n57-47" target="f9j3d46IJy92FI_s9n57-59">
          <mxGeometry x="0.0201" relative="1" as="geometry">
            <mxPoint as="offset" />
          </mxGeometry>
        </mxCell>
      </root>
    </mxGraphModel>
  </diagram>
</mxfile>
